<svg viewBox="0 0 186 24" xmlns="http://www.w3.org/2000/svg" class="qduwf12"><path d="M18.0741 3.68266L18.0285 3.63705C16.9311 2.51972 15.6086 1.65036 14.1463 1.08884C12.4276 0.441805 10.6033 0.128266 8.7677 0.16247H0V23.8204H8.7677C10.5007 23.8375 12.2223 23.5496 13.8527 22.9653C15.3093 22.4409 16.6432 21.6228 17.7663 20.5568C18.8551 19.5021 19.7074 18.228 20.2632 16.8171C20.8532 15.2694 21.1439 13.6276 21.1183 11.9715C21.1297 10.4181 20.8675 8.87316 20.3458 7.41093C19.8556 6.0228 19.0803 4.75439 18.0741 3.68266ZM18.5872 11.9487C18.5957 13.2513 18.3848 14.5454 17.9572 15.7739C17.5667 16.8941 16.9368 17.9173 16.1131 18.7724C15.2494 19.6475 14.209 20.3287 13.0603 20.7677C11.6865 21.2751 10.2271 21.5202 8.762 21.4917H2.54537V2.49121H8.7677C10.21 2.46556 11.6437 2.70784 13.0005 3.20095C14.1492 3.6285 15.1953 4.29549 16.0703 5.15629C16.9083 5.99715 17.5525 7.01188 17.9572 8.12637C18.3905 9.35487 18.6043 10.6518 18.5872 11.9544V11.9487Z" fill="inherit"></path><path d="M29.8917 23.7349L29.8375 23.8489H32.6081L43.7758 0.190974L43.8299 0.07981H41.0594L29.8917 23.7349Z" fill="inherit"></path><path d="M62.7078 12.0114C62.7078 13.5991 62.6451 15.0356 62.5197 16.2869C62.4399 17.3302 62.172 18.3477 61.7302 19.2941C61.3739 20.0295 60.7981 20.6337 60.0798 21.0242C59.3444 21.429 58.3126 21.6342 57.01 21.6342C55.1658 21.6342 53.6266 21.2551 52.4494 20.5083L51.8394 20.1264L50.7734 22.19L51.2836 22.5178C52.8741 23.5012 54.801 24 57.0128 24C58.7943 24 60.248 23.6979 61.3311 23.0993C62.4114 22.515 63.295 21.62 63.8679 20.534C64.4665 19.3454 64.8428 18.057 64.971 16.7316C65.1449 15.1667 65.2276 13.5933 65.219 12.0171V0H62.7078V12.0114Z" fill="inherit"></path><path d="M90.895 13.7416H99.523L99.4062 14.3572C98.5653 18.7667 95.2817 21.5059 90.8295 21.5059C85.5278 21.5059 81.5287 17.4157 81.5287 11.9943C81.5287 6.57292 85.5107 2.45131 90.7981 2.45131C93.9905 2.4 96.9549 4.09596 98.5254 6.87221L98.5653 6.94062L100.763 5.58955L100.723 5.52399C98.6081 2.07791 94.8428 -0.00855107 90.7981 0.0256532C84.0855 0.0256532 79.0233 5.17055 79.0233 11.9972C79.0233 18.8238 84.2081 23.9686 90.8295 23.9686C98.2176 23.9686 102.083 18.0143 102.083 12.1311V11.3501H90.895V13.7416Z" fill="inherit"></path><path d="M112.66 2.70784H121.955V23.809H124.501V2.70784H133.793V0.16247H112.66V2.70784Z" fill="inherit"></path><path d="M154.29 0.190974L154.344 0.07981H151.576L140.374 23.7349L140.32 23.8489H143.091L146.748 16.1045H154.407V13.582H147.939L154.29 0.190974Z" fill="inherit"></path><path d="M170.694 21.2637V0.16247H168.148V23.809H185.892V21.2637H170.694Z" fill="inherit"></path></svg>