<svg width="266" height="266" viewBox="0 0 266 266" fill="none" xmlns="http://www.w3.org/2000/svg">
<circle cx="133" cy="133" r="133" fill="#D9D9D9"/>
<path d="M44.0278 232.851C44.1978 233.021 44.3578 233.181 44.5278 233.351C44.0978 233.451 43.9278 233.281 44.0278 232.851Z" fill="#F7F7F7"/>
<path d="M163.278 215.331C157.728 218.171 152.058 218.761 146.238 216.191C142.818 214.681 140.198 212.291 139.048 208.681C138.498 206.961 137.608 206.421 135.958 206.751C135.718 206.801 135.458 206.791 135.208 206.771C131.258 206.501 128.608 207.171 126.148 211.401C120.688 220.831 105.138 220.141 99.2478 210.791C98.7178 209.951 98.2578 209.741 97.2978 209.781C93.3078 209.951 89.3078 209.961 85.3178 210.111C79.5178 210.331 75.1678 207.681 72.2078 203.001C69.6678 198.991 71.3578 190.531 75.5278 187.151C77.0178 185.941 78.5078 184.681 80.2878 183.991C81.8478 183.391 82.1578 182.751 81.2378 181.321C78.0878 176.401 77.5478 170.931 77.9578 165.271C78.0778 163.601 78.4078 161.971 79.2278 160.501C79.9378 159.231 79.5378 158.431 78.2378 158.041C75.8578 157.331 72.978 152.402 72.978 152.402C72.978 152.402 72.978 152.402 69.478 146.902C69.478 146.902 69.1778 145.441 68.9178 144.731C68.4878 143.561 67.8878 142.441 67.6078 141.241C66.9278 138.281 65.9678 135.441 67.4878 132.261C68.9778 129.141 68.6478 125.431 69.9978 122.131C70.6578 120.511 71.8578 119.311 72.5178 117.761C72.9478 117.571 73.4078 117.421 73.8178 117.191C75.3478 116.351 76.8178 116.471 78.1078 117.611C79.2578 118.621 79.4578 119.831 79.0478 121.401C76.6278 130.581 80.0178 137.711 88.5478 142.671C91.1978 144.211 93.7378 145.501 96.8178 145.541C97.7878 145.551 98.3378 146.041 98.5078 147.011C99.1078 150.491 101.508 152.891 103.738 155.321C105.098 156.801 105.598 158.131 105.548 160.221C105.308 169.441 105.358 178.671 105.408 187.891C105.428 190.861 105.178 193.871 106.038 196.811C106.528 198.491 104.388 199.231 104.408 200.801C103.538 202.091 103.908 203.301 104.648 204.481C106.458 208.621 109.668 210.631 113.718 210.141C117.538 209.681 120.638 206.691 121.398 202.671C121.508 202.111 121.658 201.451 121.478 200.951C119.538 195.611 120.868 190.101 120.628 184.681C120.418 180.041 120.688 175.381 120.828 170.731C120.908 168.221 122.458 166.671 124.608 166.751C127.048 166.841 128.378 168.311 128.408 170.991C128.508 179.961 128.608 188.931 128.658 197.901C128.658 199.191 128.698 199.891 130.378 199.611C131.998 199.331 133.718 199.361 135.358 199.571C137.318 199.831 137.768 199.021 137.768 197.281C137.778 188.471 138.018 179.671 137.838 170.861C137.778 168.041 140.548 166.471 142.678 167.011C144.268 167.421 145.388 168.241 145.398 170.071C145.468 179.121 145.728 188.181 145.498 197.231C145.438 199.551 144.448 201.821 145.328 204.231C146.738 208.111 150.018 210.261 154.488 210.041C158.568 209.841 161.238 207.591 162.258 203.551C162.538 202.461 162.688 201.261 161.988 200.421C160.348 198.441 160.938 196.341 160.988 194.091C161.238 182.551 161.258 171.001 161.258 159.451C161.258 157.741 161.628 156.521 162.928 155.321C165.488 152.941 167.858 150.371 168.398 146.651C168.548 145.631 169.268 145.051 170.408 145.491C178.438 148.651 184.728 153.611 187.328 162.191C189.378 168.961 187.808 175.331 184.598 181.361C183.838 182.791 184.038 183.121 185.448 183.781C189.488 185.671 192.708 188.481 194.148 192.881C196.448 199.921 193.038 206.571 185.998 208.901C184.978 209.241 183.948 209.561 182.928 209.881C178.768 209.871 174.598 209.861 170.438 209.851C169.138 209.361 168.148 209.491 167.468 210.941C166.578 212.841 164.758 213.931 163.258 215.291L163.278 215.331ZM179.948 190.481L178.008 190.251C177.318 190.171 176.628 190.091 175.948 190.011C175.348 189.731 174.688 189.541 174.148 189.171C171.748 187.541 171.598 186.101 173.528 184.021C175.688 181.691 177.448 179.081 178.748 176.171C182.588 167.551 179.448 158.401 171.378 154.551C169.768 153.781 169.098 153.661 169.098 155.851C169.128 169.061 169.008 182.271 169.008 195.491C169.008 202.321 169.088 202.321 175.948 201.931C177.018 202.001 178.108 202.201 179.168 202.121C181.168 201.981 183.348 202.701 185.068 201.051C188.508 197.471 186.358 191.941 181.008 190.601C180.648 190.561 180.298 190.521 179.938 190.471L179.948 190.481ZM79.1378 196.441C78.9478 197.151 78.7978 197.861 79.3778 198.481C79.8678 201.031 81.7878 201.731 83.9778 201.801C87.8778 201.931 91.7878 201.871 95.6878 201.931C96.8678 201.951 97.4078 201.561 97.6378 200.291C98.2778 196.801 97.5978 193.351 97.5978 189.881C97.6078 178.111 97.4878 166.341 97.4178 154.571C97.5078 154.211 97.4778 153.951 96.9978 154.101C89.9978 155.301 84.4178 163.621 85.7778 170.441C86.8078 175.621 88.9878 180.131 92.4378 184.101C94.5878 186.571 94.1278 188.101 91.1178 189.561C89.6378 190.271 87.9778 189.871 86.5178 190.531C86.1578 190.581 85.8078 190.631 85.4478 190.681C82.1078 191.261 79.9578 193.131 79.1478 196.461L79.1378 196.441ZM75.8778 139.561C74.8178 139.521 74.9078 140.241 75.0378 140.751C76.0278 144.791 77.3778 148.641 80.4378 151.691C82.7478 153.991 82.6978 154.041 84.9478 151.891C85.1878 151.661 85.4178 151.411 85.7078 151.251C87.8478 150.061 86.9078 149.261 85.3878 148.471C81.7878 146.621 78.7078 144.201 76.7478 140.561C76.5278 140.151 76.4178 139.581 75.8878 139.551L75.8778 139.561Z" fill="#070606"/>
<path d="M101.168 117.701C95.2877 112.191 91.2577 105.491 88.4677 98.0008C88.0277 96.8208 87.7777 96.3208 86.3377 97.4008C77.4877 104.051 65.3877 105.781 56.3277 94.4008C53.0477 90.2808 52.9977 85.0208 53.7377 79.8608C54.6877 73.2108 58.6277 68.1208 62.5777 63.1408C69.7577 54.0908 78.2077 46.2508 87.2077 39.0408C91.5077 35.6008 96.8377 34.8108 102.288 35.2408C103.768 35.3608 105.268 35.3308 106.728 35.8008C109.088 36.5508 111.228 35.5908 113.248 34.5508C118.348 31.9208 123.808 30.7208 129.488 30.3108C138.928 29.2408 147.838 30.9208 156.148 35.5508C157.218 36.1408 158.168 36.3708 159.428 36.0708C168.218 34.0008 176.008 35.7108 182.958 41.7808C192.758 50.3308 202.228 59.0908 209.158 70.2808C213.258 76.9008 214.608 83.6808 211.958 91.1408C210.488 95.2908 207.618 98.1308 203.958 100.331C201.718 101.181 199.488 101.981 197.048 102.221C192.558 102.661 188.318 101.821 184.198 100.101C182.868 98.8408 180.998 98.5508 179.558 97.4008C178.468 96.5308 178.148 97.7108 177.838 98.6308C176.118 103.721 173.838 108.521 170.418 112.741C168.408 115.221 165.928 117.151 163.558 119.241C162.868 119.851 161.768 119.781 161.538 119.541C159.728 117.621 157.358 117.561 154.398 117.611C156.538 115.381 158.368 113.931 160.328 112.491C165.078 109.001 168.008 104.041 170.038 98.5908C171.408 94.9008 172.838 91.3508 175.908 88.6508C177.108 87.5908 177.978 86.1608 177.498 83.6208C180.328 87.1608 182.868 89.8108 185.848 92.0208C189.218 94.5108 192.978 95.4208 197.058 94.7708C203.448 93.7508 207.048 88.3308 205.658 81.9708C204.848 78.2608 203.008 75.0008 200.928 71.8908C196.368 65.0708 190.778 59.1708 184.618 53.7908C184.108 52.9108 183.368 52.2808 182.478 51.8108C178.478 47.9408 174.218 44.4908 168.388 42.4708C169.418 44.2508 170.218 45.5208 170.888 46.8408C171.078 47.2108 171.088 47.9008 170.868 48.2108C170.448 48.7908 170.038 48.1908 169.658 47.9308C167.348 46.3508 164.758 45.4208 161.998 45.1908C158.098 44.8708 155.068 42.4108 151.498 41.2808C143.198 37.1608 134.478 36.4708 125.478 38.0708C120.268 38.9508 115.498 41.0108 110.978 43.6608C109.908 44.2908 108.878 44.7308 107.608 44.8808C103.478 45.3908 99.4677 46.4008 95.6477 48.1108C95.2177 48.3008 94.7277 48.3308 93.9977 48.5008C94.7577 46.9208 95.6977 45.8308 96.6377 44.7408C97.0877 44.2108 97.9977 43.7208 97.4677 42.8908C96.8277 41.8908 95.9277 42.6708 95.2577 42.9608C92.1777 44.3008 89.5777 46.3108 87.3477 48.8208C81.9377 53.1208 77.1677 58.0808 72.5777 63.2108C68.7677 67.4708 65.1477 71.9408 62.5077 77.0708C59.9477 82.0408 60.6077 88.2408 63.9977 91.7208C67.4577 95.2708 73.3277 95.8508 78.5977 93.3708C82.8777 91.3608 85.1077 87.5608 87.5377 83.8708C88.2777 83.6408 88.7877 83.7508 89.0177 84.6408C89.5477 86.6508 90.8577 88.1808 92.4477 89.4008C94.0677 90.6508 94.3277 92.5708 94.7777 94.1908C97.1277 102.731 102.548 109.021 109.058 114.611C109.858 115.291 110.578 116.051 111.608 117.031C109.028 117.261 106.968 117.811 105.078 119.131C103.378 120.311 102.308 118.701 101.178 117.721L101.168 117.701ZM98.7477 42.6408C98.3977 42.4708 98.1877 42.2808 98.0077 42.3008C97.8077 42.3208 97.6277 42.5308 97.4377 42.6608C97.5577 42.8208 97.7277 43.1308 97.7977 43.1108C98.0777 43.0408 98.3377 42.8608 98.7477 42.6408Z" fill="#070606"/>
<path d="M88.1578 61.3108C90.1978 57.6108 92.6278 54.3208 96.2478 51.9008C108.968 43.3808 125.408 50.1708 128.858 64.6908C129.238 66.2808 129.678 66.6008 131.108 66.1408C132.308 65.7608 133.668 65.4608 134.798 65.9308C137.588 67.0908 137.898 65.2908 138.448 63.3508C141.688 51.8108 152.628 46.6408 162.658 48.6808C172.268 50.6408 181.598 60.3208 179.348 73.2908C177.008 86.7708 165.818 94.5308 152.838 91.2008C145.128 89.2208 140.008 84.0508 138.038 76.2308C137.468 73.9608 136.428 72.9608 134.158 73.1408C133.328 73.2008 132.498 73.2908 131.668 73.2908C130.068 73.2808 129.358 73.7908 128.888 75.5808C125.498 88.2908 112.628 94.8408 100.168 90.4908C96.5978 89.2408 94.0578 87.0108 91.7978 84.0608C88.6478 79.9408 87.5078 75.1708 86.4578 70.3008C87.0278 67.3108 87.5978 64.3208 88.1678 61.3208L88.1578 61.3108ZM158.668 56.2808C149.728 55.3408 143.928 63.8208 144.038 70.1408C144.168 77.9008 150.868 84.8108 158.368 84.8208C166.238 84.8308 172.278 78.4908 172.588 70.5008C172.878 62.9708 165.408 54.9208 158.668 56.2808ZM122.548 70.1108C122.768 63.3308 116.008 55.6308 108.358 55.8008C100.648 55.9708 93.9778 62.3708 93.8778 70.0408C93.7878 77.5408 100.648 84.7508 107.918 84.7808C115.688 84.8108 122.498 77.9908 122.548 70.1208V70.1108Z" fill="#070606"/>
<path d="M164.508 135.861C164.678 139.941 164.548 143.991 163.308 147.941C161.568 153.461 157.748 155.601 152.168 154.131C147.948 153.021 144.048 151.171 140.398 148.841C139.628 148.351 139.228 148.101 138.298 148.751C135.328 150.851 132.098 150.971 128.968 149.101C128.058 148.561 127.608 148.701 126.818 149.181C122.668 151.731 118.108 153.281 113.418 154.441C109.518 155.401 106.408 153.741 104.588 150.121C103.048 147.061 102.768 143.761 102.658 140.431C102.538 136.871 102.538 133.301 102.538 129.741C102.538 124.441 107.888 120.021 113.098 121.311C117.768 122.461 122.408 123.821 126.718 126.061C127.468 126.451 128.078 126.781 129.018 126.321C132.018 124.861 135.148 124.931 138.198 126.141C139.648 126.721 140.728 126.461 142.138 125.851C146.528 123.961 150.848 121.701 155.688 121.161C161.918 120.461 164.068 124.771 164.478 128.881C164.708 131.181 164.518 133.521 164.518 135.851L164.508 135.861ZM109.998 137.341C109.998 139.761 110.208 142.151 110.548 144.531C110.818 146.401 111.668 147.331 113.708 146.441C115.828 145.511 117.958 144.561 120.158 143.861C122.528 143.111 123.398 141.951 122.608 139.401C122.138 137.871 122.368 136.121 122.328 134.471C122.308 133.731 122.518 132.991 121.558 132.611C118.478 131.391 115.418 130.141 112.348 128.871C111.018 128.321 110.528 128.851 110.458 130.161C110.328 132.561 110.148 134.951 109.988 137.341H109.998ZM156.408 137.851C156.408 137.851 156.448 137.851 156.468 137.851C156.468 135.451 156.438 133.051 156.478 130.651C156.508 129.231 156.058 128.631 154.568 129.191C151.628 130.311 148.698 131.431 145.718 132.451C144.868 132.741 144.838 133.101 144.948 133.881C145.298 136.431 145.368 139.011 144.368 141.451C144.028 142.281 144.228 142.671 144.968 142.981C148.258 144.321 151.478 145.831 154.938 146.771C156.338 147.151 156.368 146.351 156.378 145.551C156.438 142.991 156.398 140.421 156.398 137.861L156.408 137.851ZM129.448 136.811C129.418 140.641 130.488 141.971 133.398 141.961C136.838 141.941 137.748 140.821 137.598 136.811C137.568 136.061 137.528 135.321 137.478 134.571C137.448 134.081 137.468 133.431 136.888 133.321C134.648 132.881 132.338 133.011 130.218 133.681C128.748 134.151 129.788 135.891 129.448 136.811Z" fill="#070606"/>
<path d="M133.608 85.3108C135.128 85.0208 136.748 85.5008 138.358 85.8208C141.748 86.4908 143.378 89.7508 141.968 92.8908C141.208 94.6008 140.018 96.1208 138.378 96.9208C136.058 98.0408 136.238 99.7408 136.708 101.661C137.928 106.661 142.498 108.471 146.738 105.531C148.518 104.301 149.908 104.931 151.198 106.101C152.398 107.201 152.008 108.421 151.208 109.671C148.388 114.131 141.008 115.121 136.618 111.571C136.298 111.311 135.938 111.051 135.708 110.721C134.338 108.781 133.318 109.041 131.648 110.711C128.088 114.291 122.778 114.671 118.828 112.061C116.298 110.381 115.598 107.801 117.058 105.741C117.848 104.621 118.718 104.201 119.988 104.981C120.698 105.411 121.438 105.791 122.188 106.151C125.628 107.841 128.438 106.651 129.618 103.001C130.678 99.7308 130.408 98.8808 127.638 96.7708C126.068 95.5808 124.948 94.0808 124.418 92.1608C123.588 89.1408 125.388 86.3808 128.498 85.7608C130.138 85.4308 131.768 85.2108 133.598 85.2908L133.608 85.3108Z" fill="#070606"/>
<path d="M125.468 38.0508C134.478 36.4408 143.198 37.1408 151.488 41.2608C151.798 43.0508 152.368 44.9408 149.568 45.2608C148.538 45.3808 147.678 45.4108 146.948 44.3908C145.118 41.8508 141.108 40.9208 138.078 42.9008C133.998 45.5608 129.758 45.4208 125.448 43.1408C122.678 41.6708 122.508 40.6608 125.108 38.7008C125.288 38.5708 125.348 38.2808 125.458 38.0708L125.468 38.0508Z" fill="#EDEDEC"/>
<path d="M113.718 103.781C112.188 103.751 111.358 102.621 111.208 100.981C111.008 98.7608 112.328 97.2508 114.348 97.2208C116.228 97.2008 117.558 98.0808 117.898 99.9308C118.178 101.471 115.768 103.741 113.718 103.781Z" fill="#070606"/>
<path d="M155.948 101.181C156.078 102.591 155.738 103.921 153.908 104.091C152.138 104.251 149.368 102.041 149.328 100.601C149.288 98.9608 150.768 97.6308 152.628 97.6208C154.678 97.6208 155.938 98.9008 155.948 101.181Z" fill="#070606"/>
<path d="M70.3962 76.5662C71.9691 79.2459 70.6014 81.7878 69.4114 83.9206C68.3687 85.794 66.3217 85.2875 64.7884 83.8234C64.7673 81.4328 66.7833 80.3343 68.0418 78.7864C68.7082 77.9582 69.5994 77.2996 70.3821 76.5667L70.3962 76.5662Z" fill="#EDEDEC"/>
<path d="M75.1955 87.9995C74.2085 87.0199 73.1108 86.1147 72.2551 85.0388C71.1705 83.6662 71.6932 82.5526 73.4399 82.3119C74.1653 82.2105 74.9336 82.3411 75.6435 82.1978C77.7586 81.754 79.4917 81.7472 79.0858 84.7106C78.5556 85.1594 78.0255 85.6082 77.5021 86.0497C77.0711 85.6322 76.6315 85.3847 76.0886 85.8764C75.5799 86.3315 75.6023 86.8048 76.0219 87.3076C75.7466 87.543 75.4781 87.771 75.1955 87.9995Z" fill="#EDEDEC"/>
<path d="M98.7477 42.6408C98.3377 42.8608 98.0777 43.0408 97.7977 43.1108C97.7177 43.1308 97.5577 42.8208 97.4377 42.6608C97.6277 42.5308 97.8077 42.3208 98.0077 42.3008C98.1877 42.2808 98.3977 42.4708 98.7477 42.6408Z" fill="#EDEDEC"/>
<path d="M158.668 56.2808C165.408 54.9308 172.878 62.9708 172.588 70.5008C172.278 78.4808 166.238 84.8308 158.368 84.8208C150.868 84.8108 144.168 77.9008 144.038 70.1408C143.928 63.8208 149.728 55.3408 158.668 56.2808ZM159.938 61.8008H162.478C161.698 61.1808 161.198 59.9008 159.968 60.7908C152.538 59.7208 148.278 65.7708 150.608 72.9808C151.918 77.0408 156.468 79.0608 160.728 77.4908C165.368 75.7808 167.658 71.1108 165.858 67.0108C162.918 70.0508 160.638 70.4608 158.738 68.2708C156.828 66.0708 157.258 63.7908 159.938 61.8008Z" fill="#F7F7F7"/>
<path d="M122.548 70.1107C122.498 77.9807 115.698 84.8007 107.918 84.7707C100.648 84.7407 93.7778 77.5407 93.8778 70.0307C93.9778 62.3607 100.648 55.9707 108.358 55.7907C116.018 55.6207 122.778 63.3207 122.548 70.1007V70.1107ZM116.408 65.9907C116.378 65.6107 116.338 65.2307 116.308 64.8607C115.688 65.1307 116.118 65.6207 116.058 66.0007C115.888 66.8807 115.208 67.3907 114.588 67.9307C112.558 69.7007 110.528 69.8307 109.058 68.3107C107.428 66.6307 107.558 64.2207 109.318 62.3107C109.668 61.9307 110.438 61.8207 110.288 61.0407C104.808 59.6107 100.738 62.5807 100.188 68.3907C99.7078 73.4407 102.488 77.3707 107.048 78.0707C111.588 78.7607 115.888 75.7107 116.788 71.1507C117.138 69.3907 116.788 67.7007 116.398 66.0007L116.408 65.9907Z" fill="#F7F7F7"/>
<path d="M109.998 137.341C110.158 134.951 110.338 132.551 110.468 130.161C110.538 128.851 111.028 128.321 112.358 128.871C115.418 130.131 118.488 131.381 121.568 132.611C122.528 132.991 122.318 133.731 122.338 134.471C122.378 136.121 122.148 137.881 122.618 139.401C123.408 141.951 122.548 143.111 120.168 143.861C117.968 144.551 115.838 145.511 113.718 146.441C111.678 147.341 110.818 146.401 110.558 144.531C110.218 142.151 110.008 139.761 110.008 137.341H109.998Z" fill="#EA394B"/>
<path d="M156.408 137.851C156.408 140.411 156.448 142.981 156.388 145.541C156.368 146.341 156.348 147.141 154.948 146.761C151.488 145.821 148.268 144.311 144.978 142.971C144.238 142.671 144.028 142.281 144.378 141.441C145.378 139.001 145.308 136.431 144.958 133.871C144.848 133.091 144.878 132.741 145.728 132.441C148.698 131.421 151.638 130.301 154.578 129.181C156.058 128.621 156.508 129.221 156.488 130.641C156.448 133.041 156.478 135.441 156.478 137.841C156.458 137.841 156.438 137.841 156.418 137.841L156.408 137.851Z" fill="#EA394B"/>
<path d="M129.448 136.811C129.788 135.891 128.748 134.141 130.218 133.681C132.338 133.011 134.638 132.881 136.888 133.321C137.458 133.431 137.438 134.081 137.478 134.571C137.528 135.321 137.578 136.061 137.598 136.811C137.748 140.821 136.828 141.941 133.398 141.961C130.488 141.981 129.428 140.641 129.448 136.811Z" fill="#EA394B"/>
<path d="M159.938 61.8007C157.258 63.7907 156.828 66.0807 158.738 68.2707C160.638 70.4607 162.918 70.0507 165.858 67.0107C167.658 71.1107 165.378 75.7807 160.728 77.4907C156.468 79.0607 151.908 77.0407 150.608 72.9807C148.288 65.7707 152.548 59.7207 159.968 60.7907C159.958 61.1307 159.948 61.4607 159.938 61.8007Z" fill="#070606"/>
<path d="M159.938 61.8007C159.948 61.4607 159.958 61.1307 159.968 60.7907C161.198 59.9007 161.698 61.1807 162.478 61.8007H159.938Z" fill="#EDEDEC"/>
<path d="M116.408 65.9908C116.798 67.6908 117.148 69.3908 116.798 71.1408C115.898 75.7008 111.598 78.7608 107.058 78.0608C102.498 77.3608 99.7179 73.4408 100.198 68.3808C100.748 62.5708 104.818 59.6108 110.298 61.0308C110.448 61.8108 109.678 61.9208 109.328 62.3008C107.558 64.2108 107.438 66.6108 109.068 68.3008C110.538 69.8208 112.568 69.6908 114.598 67.9208C115.218 67.3808 115.898 66.8808 116.068 65.9908L116.238 65.9808H116.408V65.9908Z" fill="#070606"/>
<path d="M116.408 65.9908H116.238H116.068C116.118 65.6008 115.698 65.1108 116.318 64.8508C116.348 65.2308 116.388 65.6108 116.418 65.9808L116.408 65.9908Z" fill="#EDEDEC"/>
</svg>
